<?xml version="1.0" encoding="UTF-8"?>
<svg id="Layer_1" data-name="Layer 1" xmlns="http://www.w3.org/2000/svg" viewBox="0 0 300 58.38">
  <defs>
    <style>
      .cls-1 {
        fill: #6fe6bb;
      }
    </style>
  </defs>
  <path class="cls-1" d="M63.54,2.46H6.34c-2.25,0-4.08,1.82-4.08,4.07v42.71c0,2.26,1.83,4.08,4.08,4.08h57.2c2.26,0,4.08-1.82,4.08-4.08V6.53c0-2.25-1.82-4.07-4.08-4.07ZM63.04,46.37h-7.84c-.07,0-.18,0-.34-.22l-7.7-13.6-8.08,13.57c-.07.09-.21.26-.41.26h-10.97c-.26,0-.31-.07-.37-.24l-8.16-18.01c-1.51-3.44-3.06-7.71-4.15-11.42l-.13-.42h-1.25l.06.64c.35,3.68.53,7.24.53,10.6v18.7c0,.09-.01.13-.01.13-.01.01-.05.02-.14.02h-6.41c-.09,0-.13-.01-.13-.01-.01-.01-.02-.05-.02-.14V8.92c0-.09.01-.13.01-.13.01,0,.05-.02.14-.02h9.64c.26,0,.31.07.37.22l7.79,18.01c1.57,3.7,2.89,7.77,4.01,11.29l.13.41h1.25l-.07-.65c-.27-2.37-.45-4.78-.53-7.17h6.66v6.39l6.11-9.86-6.11-9.98v6.38h-6.72v-14.9c0-.09.02-.13.02-.13,0,0,.04-.02.13-.02h9.02c.2,0,.34.17.39.24l7.54,13.16,7.93-13.19c.09-.14.22-.21.41-.21h7.33s-11.68,18.59-11.68,18.59l11.8,19.02h-.02Z"/>
  <path class="cls-1" d="M90.02,27.4h-8.16c-.29,0-.46.17-.46.46v3.5c0,.29.17.46.46.46h3.7v.26c0,2.64-1.09,4.64-4.36,4.64s-4.33-1.99-4.33-4.64v-6.2c0-2.64,1.1-4.64,4.29-4.64,2.58,0,3.5,1.26,4.07,2.88.09.27.26.4.57.29l3.86-1.09c.31-.09.4-.29.33-.57-.99-3.5-3.66-6.28-8.88-6.28-5.85,0-9.39,3.43-9.39,9.25v6.49c0,5.34,3.08,9.25,9.45,9.25s9.32-4.16,9.32-9.39v-4.22c0-.29-.17-.46-.46-.46Z"/>
  <path class="cls-1" d="M109.48,36.45h-9.32v-5.45h8.29c.31,0,.47-.17.47-.46v-3.54c0-.29-.17-.46-.47-.46h-8.29v-5.03h9.26c.29,0,.46-.17.46-.46v-3.7c0-.29-.17-.46-.46-.46h-13.95c-.29,0-.46.17-.46.46v23.26c0,.29.17.46.46.46h14.01c.29,0,.47-.17.47-.46v-3.7c0-.29-.18-.46-.47-.46Z"/>
  <path class="cls-1" d="M133.25,16.89h-4c-.31,0-.47.17-.47.46v11.63c0,2.31.14,4.49.37,6.57h-.09c-.63-1.98-1.49-4.66-2.51-7.07l-4.86-11.24c-.09-.26-.29-.35-.57-.35h-6c-.31,0-.47.17-.47.46v23.26c0,.29.17.46.47.46h4c.29,0,.46-.17.46-.46v-11.67c0-2.31-.13-4.55-.33-6.64h.09c.6,2.02,1.56,4.77,2.61,7.17l5.1,11.24c.09.26.29.35.57.35h5.65c.29,0,.46-.17.46-.46v-23.26c0-.29-.17-.46-.46-.46Z"/>
  <path class="cls-1" d="M162.69,16.89h-17.42c-.29,0-.46.17-.46.46v3.83c0,.29.17.46.46.46h6.15v18.97c0,.29.17.46.47.46h4.22c.29,0,.46-.17.46-.46v-18.97h6.12c.29,0,.46-.17.46-.46v-3.83c0-.29-.17-.46-.46-.46Z"/>
  <path class="cls-1" d="M184.97,16.89h-4.23c-.29,0-.46.17-.46.46v9.25h-8.33v-9.25c0-.29-.17-.46-.46-.46h-4.23c-.29,0-.46.17-.46.46v23.26c0,.29.17.46.46.46h4.23c.29,0,.46-.17.46-.46v-9.25h8.33v9.25c0,.29.17.46.46.46h4.23c.29,0,.46-.17.46-.46v-23.26c0-.29-.17-.46-.46-.46Z"/>
  <path class="cls-1" d="M205.38,36.45h-9.32v-5.45h8.29c.29,0,.46-.17.46-.46v-3.54c0-.29-.17-.46-.46-.46h-8.29v-5.03h9.26c.29,0,.46-.17.46-.46v-3.7c0-.29-.17-.46-.46-.46h-13.95c-.29,0-.46.17-.46.46v23.26c0,.29.17.46.46.46h14.01c.29,0,.46-.17.46-.46v-3.7c0-.29-.17-.46-.46-.46Z"/>
  <path class="cls-1" d="M255.12,16.89h-6.35c-.26,0-.42.09-.5.39l-2.87,11.57c-.66,2.41-.99,4.16-1.32,6.74h-.11c-.29-2.57-.72-4.33-1.32-6.7l-2.9-11.61c-.07-.29-.24-.39-.5-.39h-6.45c-.29,0-.46.17-.46.46v23.26c0,.29.17.46.46.46h3.74c.29,0,.46-.17.46-.46v-11.7c0-1.95-.24-5.18-.4-7.07h.14l4.68,18.84c.07.29.24.39.5.39h4.03c.27,0,.44-.09.5-.39l4.62-18.87h.14c-.17,1.92-.33,5.15-.33,7.1v11.7c0,.29.17.46.46.46h3.76c.29,0,.46-.17.46-.46v-23.26c0-.29-.17-.46-.46-.46Z"/>
  <path class="cls-1" d="M279.94,40.55l-7.3-23.27c-.07-.26-.27-.39-.53-.39h-5.45c-.27,0-.46.13-.53.39l-7.21,23.27c-.09.29.07.52.4.52h4.09c.27,0,.46-.13.53-.39l1.52-5.06h7.74l1.51,5.06c.07.26.27.39.53.39h4.29c.33,0,.5-.22.4-.52ZM266.91,30.96l.46-1.56c.73-2.37,1.52-5.45,1.92-7.3h.13c.44,2.22,1.12,4.77,1.85,7.24l.5,1.62h-4.86Z"/>
  <path class="cls-1" d="M297.51,36.32h-9.08v-18.97c0-.29-.17-.46-.46-.46h-4.23c-.29,0-.46.17-.46.46v23.26c0,.29.17.46.46.46h13.78c.31,0,.47-.17.47-.46v-3.83c0-.29-.17-.46-.47-.46Z"/>
  <path class="cls-1" d="M228.42,40.52l-4.9-8.82c2.58-1.16,4-3.54,4-6.51v-.99c0-4.29-2.74-7.3-7.93-7.3h-8.6c-.29,0-.46.17-.46.46v23.26c0,.29.17.46.46.46h4.23c.29,0,.46-.17.46-.46v-8.09h2.84l4.26,8.22c.11.24.31.33.53.33h4.77c.37,0,.5-.22.33-.55ZM222.37,25.11c0,1.85-.96,2.97-3.17,2.97h-3.5v-6.57h3.5c2.22,0,3.17,1.12,3.17,2.94v.66Z"/>
</svg>