<?xml version="1.0" encoding="UTF-8"?>
<svg id="Layer_1" data-name="Layer 1" xmlns="http://www.w3.org/2000/svg" viewBox="0 0 251.99 49.83">
  <defs>
    <style>
      .cls-1 {
        fill: #fff;
      }
    </style>
  </defs>
  <path class="cls-1" d="M23.4,41.84h0s10.59-17.1,10.59-17.1l-10.19-16.62H.23v-.28h-1v34h24.17ZM3.04,15.16c0-.25.14-.39.39-.39h5.07c.22,0,.39.08.47.31l4.09,9.47c.86,2.03,1.59,4.29,2.12,5.96h.08c-.2-1.75-.31-3.59-.31-5.54v-9.8c0-.25.14-.39.39-.39h3.37c.25,0,.39.14.39.39v19.61c0,.25-.14.39-.39.39h-4.76c-.22,0-.39-.08-.47-.31l-4.29-9.47c-.89-2.03-1.7-4.35-2.2-6.04h-.08c.17,1.76.28,3.65.28,5.6v9.83c0,.25-.14.39-.39.39h-3.37c-.25,0-.39-.14-.39-.39V15.16Z"/>
  <path class="cls-1" d="M3.43,35.15h3.37c.25,0,.39-.14.39-.39v-9.83c0-1.95-.11-3.84-.28-5.6h.08c.5,1.7,1.31,4.01,2.2,6.04l4.29,9.47c.08.22.25.31.47.31h4.76c.25,0,.39-.14.39-.39V15.16c0-.25-.14-.39-.39-.39h-3.37c-.25,0-.39.14-.39.39v9.8c0,1.95.11,3.79.31,5.54h-.08c-.53-1.67-1.25-3.93-2.12-5.96l-4.09-9.47c-.08-.22-.25-.31-.47-.31H3.43c-.25,0-.39.14-.39.39v19.61c0,.25.14.39.39.39Z"/>
  <path class="cls-1" d="M69.02,35.49c5.4,0,7.85-3.51,7.85-7.91v-3.56c0-.25-.14-.39-.39-.39h-6.88c-.25,0-.39.14-.39.39v2.95c0,.25.14.39.39.39h3.12v.22c0,2.23-.92,3.9-3.68,3.9s-3.65-1.67-3.65-3.9v-5.24c0-2.23.92-3.9,3.62-3.9,2.17,0,2.95,1.06,3.43,2.42.08.22.22.33.47.25l3.26-.92c.25-.08.33-.25.28-.47-.84-2.95-3.09-5.29-7.49-5.29-4.93,0-7.91,2.9-7.91,7.8v5.46c0,4.51,2.59,7.8,7.97,7.8Z"/>
  <path class="cls-1" d="M81.09,35.15h11.81c.25,0,.39-.14.39-.39v-3.12c0-.25-.14-.39-.39-.39h-7.85v-4.6h6.99c.25,0,.39-.14.39-.39v-2.98c0-.25-.14-.39-.39-.39h-6.99v-4.23h7.8c.25,0,.39-.14.39-.39v-3.12c0-.25-.14-.39-.39-.39h-11.75c-.25,0-.39.14-.39.39v19.61c0,.25.14.39.39.39Z"/>
  <path class="cls-1" d="M97.64,35.15h3.37c.25,0,.39-.14.39-.39v-9.83c0-1.95-.11-3.84-.28-5.6h.08c.5,1.7,1.31,4.01,2.2,6.04l4.29,9.47c.08.22.25.31.47.31h4.76c.25,0,.39-.14.39-.39V15.16c0-.25-.14-.39-.39-.39h-3.37c-.25,0-.39.14-.39.39v9.8c0,1.95.11,3.79.31,5.54h-.08c-.53-1.67-1.25-3.93-2.12-5.96l-4.09-9.47c-.08-.22-.25-.31-.47-.31h-5.07c-.25,0-.39.14-.39.39v19.61c0,.25.14.39.39.39Z"/>
  <path class="cls-1" d="M123.08,18.78h5.18v15.99c0,.25.14.39.39.39h3.56c.25,0,.39-.14.39-.39v-15.99h5.15c.25,0,.39-.14.39-.39v-3.23c0-.25-.14-.39-.39-.39h-14.68c-.25,0-.39.14-.39.39v3.23c0,.25.14.39.39.39Z"/>
  <path class="cls-1" d="M141.61,35.15h3.56c.25,0,.39-.14.39-.39v-7.8h7.02v7.8c0,.25.14.39.39.39h3.56c.25,0,.39-.14.39-.39V15.16c0-.25-.14-.39-.39-.39h-3.56c-.25,0-.39.14-.39.39v7.8h-7.02v-7.8c0-.25-.14-.39-.39-.39h-3.56c-.25,0-.39.14-.39.39v19.61c0,.25.14.39.39.39Z"/>
  <path class="cls-1" d="M161.95,35.15h11.81c.25,0,.39-.14.39-.39v-3.12c0-.25-.14-.39-.39-.39h-7.85v-4.6h6.99c.25,0,.39-.14.39-.39v-2.98c0-.25-.14-.39-.39-.39h-6.99v-4.23h7.8c.25,0,.39-.14.39-.39v-3.12c0-.25-.14-.39-.39-.39h-11.75c-.25,0-.39.14-.39.39v19.61c0,.25.14.39.39.39Z"/>
  <path class="cls-1" d="M193.19,34.68l-4.12-7.43c2.17-.98,3.37-2.98,3.37-5.49v-.83c0-3.63-2.32-6.16-6.69-6.16h-7.24c-.25,0-.39.14-.39.39v19.61c0,.25.14.39.39.39h3.56c.26,0,.39-.14.39-.39v-6.83h2.4l3.59,6.94c.09.19.25.28.45.28h4.01c.31,0,.42-.2.28-.48ZM188.09,21.7c0,1.56-.81,2.51-2.67,2.51h-2.96v-5.54h2.96c1.86,0,2.67.95,2.67,2.48v.55Z"/>
  <path class="cls-1" d="M196.9,35.15h3.15c.25,0,.39-.14.39-.39v-9.86c0-1.64-.2-4.37-.33-5.96h.11l3.95,15.87c.06.25.2.33.42.33h3.4c.22,0,.36-.08.42-.33l3.9-15.9h.11c-.14,1.62-.28,4.35-.28,5.99v9.86c0,.25.14.39.39.39h3.17c.25,0,.39-.14.39-.39V15.16c0-.25-.14-.39-.39-.39h-5.35c-.22,0-.36.08-.42.33l-2.42,9.75c-.56,2.03-.84,3.51-1.11,5.68h-.08c-.25-2.17-.61-3.65-1.11-5.65l-2.45-9.78c-.06-.25-.2-.33-.42-.33h-5.43c-.25,0-.39.14-.39.39v19.61c0,.25.14.39.39.39Z"/>
  <path class="cls-1" d="M236.63,34.71l-6.16-19.61c-.05-.22-.22-.33-.44-.33h-4.6c-.22,0-.39.11-.44.33l-6.07,19.61c-.09.25.05.45.33.45h3.45c.23,0,.39-.11.45-.34l1.28-4.26h6.52l1.28,4.26c.05.23.22.34.44.34h3.62c.28,0,.42-.2.34-.45ZM225.66,26.63l.39-1.3c.61-2.01,1.28-4.6,1.61-6.16h.11c.36,1.87.95,4.01,1.56,6.1l.42,1.36h-4.09Z"/>
  <path class="cls-1" d="M239.84,35.15h11.61c.25,0,.39-.14.39-.39v-3.23c0-.25-.14-.39-.39-.39h-7.66v-15.99c0-.25-.14-.39-.39-.39h-3.56c-.25,0-.39.14-.39.39v19.61c0,.25.14.39.39.39Z"/>
  <path class="cls-1" d="M57.08,41.84h0s-10.66-17.17-10.66-17.17l10.42-16.55,61.1-.25V0L51.13-.03c-.33,0-.6.09-.84.28-.12.07-.23.19-.33.33l-4.53,7.55-5.04,8.36-4.78-8.36L31.32.64c-.09-.16-.23-.28-.37-.39-.21-.16-.49-.28-.79-.28L-.77.02v7.59H.23v.28l23.58.23,10.19,16.62-10.59,17.09h0s-24.17,0-24.17,0v7.85h19.92c.14.13.36.22.66.22h9.47c.27,0,.5-.09.7-.22h.02c.19-.12.33-.28.44-.44l4.41-7.41h0,0s5.34-9,5.34-9l5.09,8.99h0s0,0,0,0l4.2,7.41c.12.19.26.33.42.44h.02c.2.13.41.22.66.22h10.1c.29,0,.52-.09.66-.22h56.58v-7.85h-60.83Z"/>
</svg>